# Blender 5.1.1
# www.blender.org
mtllib door_frame.mtl
o doorFrameShape_002
v -229.999969 179.999954 360.000000
v -229.999969 169.999939 360.000000
v -229.999969 179.999954 349.999969
v -229.999969 -0.000026 349.999969
v -239.999985 -10.000026 349.999969
v -149.999985 -0.000026 349.999969
v -139.999985 -10.000026 349.999969
v -149.999985 179.999954 349.999969
v -139.999985 199.999954 349.999969
v -229.999969 179.999954 349.999969
v -239.999985 199.999954 349.999969
v -229.999969 -0.000027 360.000000
v -239.999985 -10.000026 360.000000
v -149.999985 -0.000027 360.000000
v -139.999985 -10.000026 360.000000
v -149.999985 179.999954 360.000000
v -139.999985 199.999954 360.000000
v -229.999969 179.999954 360.000000
v -239.999985 199.999954 360.000000
v -139.999985 199.999954 360.000000
v -239.999985 199.999954 360.000000
v -139.999985 199.999954 349.999969
v -239.999985 199.999954 349.999969
v -149.999985 -0.000026 349.999969
v -149.999985 -0.000027 360.000000
v -229.999969 -0.000026 349.999969
v -229.999969 -0.000027 360.000000
v -229.999969 179.999954 349.999969
v -229.999969 179.999954 360.000000
v -149.999985 179.999954 349.999969
v -149.999985 179.999954 360.000000
v -149.999985 179.999954 349.999969
v -149.999985 179.999954 360.000000
v -149.999985 -0.000026 349.999969
v -149.999985 -0.000027 360.000000
v -229.999969 169.999939 360.000000
v -229.999969 179.999954 349.999969
v -229.999969 -0.000027 360.000000
v -229.999969 -0.000026 349.999969
v -139.999985 -10.000026 349.999969
v -139.999985 -10.000026 360.000000
v -139.999985 199.999954 349.999969
v -139.999985 199.999954 360.000000
v -239.999985 199.999954 360.000000
v -239.999985 -10.000026 360.000000
v -239.999985 199.999954 349.999969
v -239.999985 -10.000026 349.999969
vn 1.0000 -0.0000 -0.0000
vn -1.0000 -0.0000 -0.0000
vn -0.0000 -0.0000 -1.0000
vn -0.0000 -1.0000 -0.0000
vn -0.0000 1.0000 -0.0000
vn -0.0000 -0.0000 1.0000
vt 0.000001 -0.350000
vt 1.000001 -0.350000
vt 0.000001 -0.250000
vt 0.000001 1.550000
vt 1.000001 1.550000
vt 1.000001 -0.550000
vt 0.000001 -0.550000
vt 0.000000 1.550000
vt 0.900000 1.450000
vt 0.100000 1.450000
vt 1.000000 1.550000
vt 0.900000 -0.350000
vt 1.000000 -0.550000
vt 0.100000 -0.350000
vt 0.000000 -0.550000
vt 1.000001 1.450000
vt 0.000001 1.450000
vt 0.100000 0.999999
vt 0.900000 0.999999
vt 0.900000 -0.000001
vt 0.100000 -0.000001
vt 0.000000 0.999999
vt 0.000000 -0.000001
vt 1.000000 -0.000001
vt 1.000000 0.999999
s 1
usemtl door_m2
f 1/1/1 2/3/1 3/2/1
f 45/4/2 46/6/2 47/5/2
f 45/4/2 44/7/2 46/6/2
f 41/4/1 42/6/1 43/7/1
f 41/4/1 40/5/1 42/6/1
f 5/8/3 4/10/3 6/9/3
f 5/8/3 6/9/3 7/11/3
f 7/11/3 6/9/3 8/12/3
f 7/11/3 8/12/3 9/13/3
f 9/13/3 8/12/3 10/14/3
f 9/13/3 10/14/3 11/15/3
f 37/2/1 38/17/1 39/16/1
f 37/2/1 36/3/1 38/17/1
f 33/1/2 34/16/2 35/17/2
f 33/1/2 32/2/2 34/16/2
f 10/14/3 4/10/3 5/8/3
f 10/14/3 5/8/3 11/15/3
f 29/18/4 30/20/4 31/19/4
f 29/18/4 28/21/4 30/20/4
f 25/19/5 26/21/5 27/18/5
f 25/19/5 24/20/5 26/21/5
f 21/22/5 22/24/5 23/23/5
f 12/10/6 13/8/6 14/9/6
f 14/9/6 13/8/6 15/11/6
f 14/9/6 15/11/6 16/12/6
f 16/12/6 15/11/6 17/13/6
f 16/12/6 17/13/6 18/14/6
f 18/14/6 17/13/6 19/15/6
f 21/22/5 20/25/5 22/24/5
f 13/8/6 18/14/6 19/15/6
f 13/8/6 12/10/6 18/14/6
